<?xml version="1.0" standalone="no"?>
<!DOCTYPE svg PUBLIC "-//W3C//DTD SVG 20010904//EN"
 "http://www.w3.org/TR/2001/REC-SVG-20010904/DTD/svg10.dtd">
<svg version="1.0" xmlns="http://www.w3.org/2000/svg"
 width="512.000000pt" height="512.000000pt" viewBox="0 0 512.000000 512.000000"
 preserveAspectRatio="xMidYMid meet">
<metadata>
Created by potrace 1.16, written by Peter Selinger 2001-2019
</metadata>
<g transform="translate(0.000000,512.000000) scale(0.100000,-0.100000)"
fill="#FF5722" stroke="none">
<path d="M2459 4616 c-30 -17 -19 5 -176 -374 -136 -331 -140 -349 -86 -392
41 -32 114 -22 140 18 5 10 67 155 137 324 136 332 145 366 102 407 -29 28
-83 36 -117 17z"/>
<path d="M3632 4325 c-21 -16 -354 -455 -439 -581 -162 -239 -258 -611 -226
-873 l10 -74 -81 6 c-386 29 -633 276 -701 702 -18 107 -26 129 -55 145 -12 6
-222 10 -598 10 l-579 0 -27 -26 c-35 -35 -36 -92 -2 -131 l24 -28 332 -5 332
-5 -56 -39 c-85 -58 -244 -230 -297 -322 -81 -138 -129 -281 -154 -456 -5 -39
-21 -67 -95 -163 -49 -64 -94 -132 -101 -152 -18 -55 -7 -144 23 -191 21 -31
239 -185 1050 -743 l1023 -704 -372 -5 -373 -5 -25 -26 c-14 -14 -28 -41 -31
-61 -5 -30 -1 -41 24 -69 l30 -34 1044 0 c953 0 1048 1 1105 17 143 40 240
113 289 220 25 55 28 75 29 158 0 116 -19 163 -96 245 -81 86 -180 135 -344
171 -83 19 -240 92 -274 128 -13 14 -66 99 -117 188 -69 122 -90 167 -83 180
5 9 9 35 9 57 0 47 -24 77 -67 87 -16 3 -32 7 -38 9 -5 1 -27 33 -48 71 -32
58 -36 72 -28 92 29 63 -14 142 -76 142 -25 0 -33 8 -64 68 l-35 67 19 37 c16
32 17 43 7 73 -13 40 -52 65 -99 65 -27 0 -35 8 -87 101 -63 112 -87 139 -120
139 -28 0 -36 39 -36 185 1 123 19 226 63 359 52 155 112 254 332 550 115 155
214 291 219 303 14 29 2 86 -21 107 -28 25 -91 31 -119 11z m-1604 -977 c49
-201 140 -365 271 -491 70 -66 217 -167 246 -167 10 0 155 -259 155 -277 0 -5
-102 -38 -227 -74 -255 -71 -273 -82 -273 -151 0 -48 43 -98 85 -98 14 0 137
32 272 70 135 39 246 70 248 68 1 -2 21 -37 43 -78 l41 -75 -302 -86 -302 -87
-30 23 c-16 12 -106 77 -200 145 -93 67 -174 126 -178 130 -4 3 12 44 37 91
83 157 111 312 87 477 -27 184 -88 314 -249 533 -13 16 -4 23 109 78 68 34
128 61 134 61 6 0 21 -42 33 -92z m-370 -251 c178 -259 206 -504 81 -724 l-30
-52 -200 146 -201 146 7 56 c20 164 113 355 234 483 41 44 40 45 109 -55z
m1495 -538 l26 -47 -45 -17 c-78 -30 -97 -117 -36 -166 23 -18 35 -20 82 -15
110 13 101 16 137 -48 18 -32 33 -60 33 -62 0 -2 -16 -6 -36 -10 -19 -3 -49
-18 -65 -31 -24 -21 -29 -32 -29 -69 0 -86 61 -113 174 -79 28 8 53 12 57 8 4
-5 23 -35 42 -68 l35 -60 -59 -18 c-46 -14 -62 -24 -74 -47 -22 -42 -19 -74
10 -108 33 -39 64 -44 148 -21 38 11 71 18 72 17 7 -8 125 -220 125 -225 0 -3
-40 -4 -89 -1 -78 4 -99 9 -164 41 -51 25 -90 54 -120 87 -31 34 -122 192
-283 488 -130 240 -245 451 -255 468 l-19 31 153 -1 153 0 27 -47z m-1030
-781 c483 -352 916 -664 963 -694 188 -123 426 -220 659 -271 111 -24 144 -26
438 -30 174 -3 317 -8 317 -12 0 -14 -74 -55 -123 -68 -118 -30 -692 -11 -937
31 -193 34 -125 -8 -1276 784 -685 472 -1059 734 -1058 744 2 25 116 168 128
161 6 -4 406 -294 889 -645z m941 -26 c99 -184 151 -259 223 -317 136 -111
295 -156 478 -134 l93 11 54 -43 c59 -47 183 -108 268 -133 30 -8 90 -25 134
-38 82 -23 188 -83 200 -113 6 -16 -13 -17 -296 -13 -263 4 -318 8 -412 27
-299 61 -506 161 -835 404 -103 75 -104 76 -77 87 15 5 33 10 40 10 7 0 25 11
40 25 20 19 26 33 26 67 -1 46 -12 68 -47 86 -32 18 -55 15 -178 -19 l-112
-32 -86 63 c-48 35 -85 66 -82 68 4 5 463 139 480 141 6 1 46 -65 89 -147z"/>
<path d="M406 3039 c-34 -40 -34 -88 -2 -126 l24 -28 259 -3 c157 -2 270 1
286 7 60 23 72 120 20 161 -24 19 -39 20 -293 20 l-268 0 -26 -31z"/>
<path d="M815 1481 c-64 -27 -81 -110 -32 -158 l27 -28 308 -3 c204 -2 320 0
344 8 85 25 90 150 7 179 -38 13 -623 14 -654 2z"/>
</g>
</svg>
